<?xml version="1.0" encoding="UTF-8"?>
<!-- Created with Inkscape (http://www.inkscape.org/) -->
<svg version="1.1" viewBox="0 0 32 32" xml:space="preserve" xmlns="http://www.w3.org/2000/svg"><g fill="none" stroke-linecap="round" stroke-linejoin="round"><g transform="matrix(1.6623 0 0 1.6623 -3.9481 -3.9481)" stroke="#2563eb" stroke-width="1.25"><path d="m5 3a2 2 0 0 0-2 2"/><path d="m19 3a2 2 0 0 1 2 2"/><path d="m21 19a2 2 0 0 1-2 2"/><path d="m5 21a2 2 0 0 1-2-2"/><path d="m9 3h1"/><path d="m9 21h1"/><path d="m14 3h1"/><path d="m14 21h1"/><path d="m3 9v1"/><path d="m21 9v1"/><path d="m3 14v1"/><path d="m21 14v1"/></g><g transform="matrix(1.0214 0 0 1.0214 3.8595 3.8595)" stroke="#2563eb" stroke-width="2.8933"><circle cx="11.863" cy="11.886" r="11.573"/><path d="m11.863 11.886h0.02315"/></g><g transform="matrix(.95365 0 0 .95365 4.5562 4.5562)" stroke="#fff" stroke-width="2"><path d="m12 2v20"/><path d="m15 19-3 3-3-3"/><path d="m19 9 3 3-3 3"/><path d="m2 12h20"/><path d="m5 9-3 3 3 3"/><path d="m9 5 3-3 3 3"/></g></g></svg>
