<?xml version="1.0" encoding="UTF-8" standalone="no"?>
<!-- Created with Inkscape (http://www.inkscape.org/) -->

<svg
   version="1.1"
   viewBox="0 0 32 32"
   xml:space="preserve"
   id="svg20"
   sodipodi:docname="favicon.svg"
   inkscape:version="1.4 (86a8ad7, 2024-10-11)"
   xmlns:inkscape="http://www.inkscape.org/namespaces/inkscape"
   xmlns:sodipodi="http://sodipodi.sourceforge.net/DTD/sodipodi-0.dtd"
   xmlns="http://www.w3.org/2000/svg"
   xmlns:svg="http://www.w3.org/2000/svg"><defs
     id="defs20" /><sodipodi:namedview
     id="namedview20"
     pagecolor="#505050"
     bordercolor="#eeeeee"
     borderopacity="1"
     inkscape:showpageshadow="0"
     inkscape:pageopacity="0"
     inkscape:pagecheckerboard="0"
     inkscape:deskcolor="#505050"
     inkscape:zoom="26.71875"
     inkscape:cx="16"
     inkscape:cy="16"
     inkscape:window-width="1920"
     inkscape:window-height="1057"
     inkscape:window-x="-8"
     inkscape:window-y="-8"
     inkscape:window-maximized="1"
     inkscape:current-layer="g20" /><g
     fill="none"
     stroke-linecap="round"
     stroke-linejoin="round"
     id="g20"><g
       transform="matrix(1.6623 0 0 1.6623 -3.9481 -3.9481)"
       stroke="#2563eb"
       stroke-width="1.25"
       id="g12"
       style="stroke:#ff6000;stroke-opacity:1"><path
         d="m5 3a2 2 0 0 0-2 2"
         id="path1"
         style="stroke:#ff6000;stroke-opacity:1" /><path
         d="m19 3a2 2 0 0 1 2 2"
         id="path2"
         style="stroke:#ff6000;stroke-opacity:1" /><path
         d="m21 19a2 2 0 0 1-2 2"
         id="path3"
         style="stroke:#ff6000;stroke-opacity:1" /><path
         d="m5 21a2 2 0 0 1-2-2"
         id="path4"
         style="stroke:#ff6000;stroke-opacity:1" /><path
         d="m9 3h1"
         id="path5"
         style="stroke:#ff6000;stroke-opacity:1" /><path
         d="m9 21h1"
         id="path6"
         style="stroke:#ff6000;stroke-opacity:1" /><path
         d="m14 3h1"
         id="path7"
         style="stroke:#ff6000;stroke-opacity:1" /><path
         d="m14 21h1"
         id="path8"
         style="stroke:#ff6000;stroke-opacity:1" /><path
         d="m3 9v1"
         id="path9"
         style="stroke:#ff6000;stroke-opacity:1" /><path
         d="m21 9v1"
         id="path10"
         style="stroke:#ff6000;stroke-opacity:1" /><path
         d="m3 14v1"
         id="path11"
         style="stroke:#ff6000;stroke-opacity:1" /><path
         d="m21 14v1"
         id="path12"
         style="stroke:#ff6000;stroke-opacity:1" /></g><g
       transform="matrix(1.0214 0 0 1.0214 3.8595 3.8595)"
       stroke="#2563eb"
       stroke-width="2.8933"
       id="g13"
       style="stroke:#ff6000;stroke-opacity:1"><circle
         cx="11.863"
         cy="11.886"
         r="11.573"
         id="circle12"
         style="stroke:#ff6000;stroke-opacity:1" /><path
         d="m11.863 11.886h0.02315"
         id="path13"
         style="stroke:#ff6000;stroke-opacity:1" /></g><g
       transform="matrix(.95365 0 0 .95365 4.5562 4.5562)"
       stroke="#fff"
       stroke-width="2"
       id="g19"><path
         d="m12 2v20"
         id="path14" /><path
         d="m15 19-3 3-3-3"
         id="path15" /><path
         d="m19 9 3 3-3 3"
         id="path16" /><path
         d="m2 12h20"
         id="path17" /><path
         d="m5 9-3 3 3 3"
         id="path18" /><path
         d="m9 5 3-3 3 3"
         id="path19" /></g></g></svg>
