<?xml version="1.0" encoding="UTF-8"?>
<!--Created with Inkscape (http://www.inkscape.org/)-->
<svg width="100%" height="100%" version="1.1" viewBox="0 0 512 127.7" xml:space="preserve" xmlns="http://www.w3.org/2000/svg">
  <g transform="translate(-1.6956e-5 -159.51)">
    <path d="m356.38 237.8a2.2464 2.2464 0 0 0-1.5879 0.6582l-6.7383 6.7383a2.2462 2.2462 0 0 0 0 3.1777 2.2462 2.2462 0 0 0 3.1777 0l5.1504-5.1504 5.1504 5.1504a2.2462 2.2462 0 0 0 3.1758 0 2.2462 2.2462 0 0 0 0-3.1777l-6.7383-6.7383a2.2464 2.2464 0 0 0-1.5898-0.6582zm-15.723 15.725c-0.59563 1.9e-4 -1.1668 0.23694-1.5879 0.6582l-6.7383 6.7383c-0.87654 0.87715-0.87654 2.2986 0 3.1758l6.7383 6.7383c0.87732 0.87796 2.3004 0.87796 3.1777 0 0.87667-0.8771 0.87667-2.2987 0-3.1758l-5.1523-5.1504 5.1523-5.1504c0.87667-0.87709 0.87667-2.2987 0-3.1758-0.42156-0.42174-0.99353-0.65853-1.5898-0.6582zm-1.3164 6.7383-2.2461 2.2461 2.2461 2.2461h39.502c1.2405-4e-5 2.246-1.0056 2.2461-2.2461-4e-5 -1.2405-1.0056-2.246-2.2461-2.2461zm32.764-6.7383c-0.59563 1.9e-4 -1.1668 0.23694-1.5879 0.6582-0.87667 0.8771-0.87667 2.2987 0 3.1758l2.9043 2.9043h5.4219c0.15506 0 0.30694 0.015 0.45312 0.0449 0.14619 0.0299 0.28756 0.074 0.42188 0.13086 0.12376 0.0524 0.24031 0.11862 0.35156 0.19141 0.0182 0.0119 0.0369 0.0227 0.0547 0.0351 0.10978 0.0765 0.21232 0.16155 0.30664 0.25586l-6.7383-6.7383c-0.42109-0.42126-0.99226-0.65801-1.5879-0.6582zm8.3262 7.3965c0.0919 0.0919 0.17321 0.19415 0.24805 0.30078-0.0738-0.10522-0.15407-0.20673-0.24805-0.30078zm0.61523 1.1484c0.0282 0.14209 0.043 0.28909 0.043 0.43945 0-0.14698-0.0143-0.29475-0.043-0.43945zm0.043 0.43945c0 0.15036-0.0148 0.29737-0.043 0.43946 0.0287-0.14471 0.043-0.29248 0.043-0.43946zm-0.41015 1.2871c-0.0749 0.10665-0.15621 0.20894-0.24805 0.30078 0.094-0.094 0.17432-0.19554 0.24805-0.30078zm-0.24805 0.30078c-0.0943 0.0943-0.19686 0.17942-0.30664 0.25586-0.0178 0.0124-0.0365 0.0233-0.0547 0.0352-0.11125 0.0728-0.2278 0.139-0.35156 0.19141-0.13432 0.0569-0.27569 0.1009-0.42188 0.13086-0.14618 0.0299-0.29806 0.0449-0.45312 0.0449h-5.4219l-2.9043 2.9043c-0.87667 0.8771-0.87667 2.2987 0 3.1758 0.87709 0.87666 2.2987 0.87666 3.1758 0zm-30.789 11.889c-0.59564 1.8e-4 -1.1668 0.23694-1.5879 0.6582-0.87667 0.87709-0.87667 2.2987 0 3.1758l6.7383 6.7383c0.87736 0.87784 2.3004 0.87784 3.1777 0l6.7383-6.7383c0.87667-0.87709 0.87667-2.2987 0-3.1758-0.87709-0.87667-2.2987-0.87667-3.1758 0l-5.1504 5.1504-5.1504-5.1504c-0.42157-0.42174-0.99354-0.65854-1.5898-0.6582zm6.2871-38.141c-0.14159 0.029-0.2777 0.0727-0.40821 0.12695 0.13305-0.0551 0.2723-0.0982 0.41406-0.12695-2e-3 -5e-5 -4e-3 -3.8e-4 -6e-3 0zm0.45312 5.3789-2.2461 2.2461v14.793h4.4922v-14.793zm-2.2461 21.531v14.793l2.2461 2.2461 2.2461-2.2461v-14.793zm-354.13-88.293v89.914h10.789v-37.121h17.727c0.25241 0 0.49106-0.0126 0.74023-0.0156l18.271 37.137h12.715l-19.615-38.617c1.9473-0.55036 3.7374-1.2457 5.3574-2.1016 4.5386-2.3977 7.8787-5.608 10.02-9.6328 2.2265-4.0248 3.3398-8.435 3.3398-13.23 0-4.9667-1.0701-9.4202-3.2109-13.359s-5.4377-7.0648-9.8906-9.377c-4.4529-2.3977-10.191-3.5957-17.213-3.5957zm10.789 9.1191h17.342c7.1076 0 12.202 1.5835 15.285 4.752 3.1684 3.0828 4.752 7.2786 4.752 12.588 0 5.2236-1.6268 9.506-4.8809 12.846-3.1684 3.3397-8.1767 5.0098-15.027 5.0098h-17.471zm86.191 15.543c-6.2512 0-11.775 1.4124-16.57 4.2383-4.7098 2.7403-8.3922 6.5938-11.047 11.561s-3.9824 10.833-3.9824 17.598c0 6.6794 1.3278 12.545 3.9824 17.598 2.7403 4.9667 6.464 8.8636 11.174 11.689 4.7098 2.7403 10.106 4.1094 16.186 4.1094 5.0524 0 9.4626-0.89897 13.23-2.6973 3.8535-1.7983 7.0638-4.2375 9.6328-7.3203s4.4102-6.5941 5.5234-10.533h-10.66c-1.3701 3.5966-3.5536 6.4214-6.5508 8.4766s-6.7229 3.084-11.176 3.084c-3.511 0-6.8924-0.85764-10.146-2.5703-3.1684-1.7983-5.7375-4.4519-7.707-7.9629-1.7424-3.106-2.7111-6.9183-2.9121-11.432h50.822c0.0856-1.1989 0.1289-2.2709 0.1289-3.2129v-2.8242c0-5.3093-1.198-10.192-3.5957-14.645-2.3977-4.5386-5.8244-8.1777-10.277-10.918-4.4529-2.8259-9.8035-4.2383-16.055-4.2383zm-0.25781 8.3496c5.4805 0 10.019 1.6681 13.615 5.0078 3.6822 3.3397 5.6533 8.0509 5.9102 14.131h-40.205c0.30829-3.6627 1.2017-6.7936 2.6973-9.377 1.9696-3.2541 4.5386-5.6952 7.707-7.3223s6.5932-2.4394 10.275-2.4394zm67.949-8.3496c-6.08 0-11.56 1.4124-16.441 4.2383-4.7955 2.7403-8.6057 6.6371-11.432 11.689-2.7403 4.9667-4.1094 10.789-4.1094 17.469s1.2845 12.545 3.8535 17.598c2.569 4.9667 6.2081 8.8636 10.918 11.689 4.7955 2.7403 10.532 4.1094 17.211 4.1094 7.6214 0 14.003-2.0123 19.141-6.0371s8.3916-9.2474 9.7617-15.67h-11.047c-0.59943 2.6546-1.7561 4.966-3.4688 6.9355-1.7127 1.8839-3.8096 3.3396-6.293 4.3672-2.4834 0.94197-5.2235 1.4141-8.2207 1.4141-2.9115 0-5.6517-0.51537-8.2207-1.543-2.4834-1.0276-4.6668-2.5678-6.5508-4.623s-3.3829-4.581-4.4961-7.5781c-1.0276-3.0828-1.541-6.6373-1.541-10.662 0-5.6518 0.98355-10.32 2.9531-14.002s4.5386-6.4224 7.707-8.2207c3.1684-1.8839 6.5518-2.8242 10.148-2.8242 4.4529 0 8.3478 1.1547 11.688 3.4668 3.3397 2.2265 5.4386 5.5233 6.2949 9.8906h11.047c-1.3701-6.5938-4.6237-11.86-9.7617-15.799s-11.519-5.9082-19.141-5.9082zm67.309 0c-5.9943 0-11.431 1.3691-16.312 4.1094-4.7955 2.7403-8.6057 6.6371-11.432 11.689-2.8259 4.9667-4.2402 10.833-4.2402 17.598s1.3711 12.674 4.1113 17.727c2.8259 4.9667 6.6362 8.8203 11.432 11.561s10.191 4.1094 16.186 4.1094 11.388-1.3691 16.184-4.1094c4.8811-2.7403 8.7346-6.5938 11.561-11.561 2.8259-5.0524 4.2383-10.962 4.2383-17.727s-1.4124-12.631-4.2383-17.598c-2.7403-5.0524-6.5073-8.9492-11.303-11.689s-10.191-4.1094-16.186-4.1094zm0 8.3496c3.5966 0 6.98 0.89896 10.148 2.6973s5.6942 4.5798 7.5781 8.3477c1.9696 3.6822 2.9531 8.3502 2.9531 14.002s-0.98356 10.32-2.9531 14.002-4.5386 6.4637-7.707 8.3476c-3.1684 1.7983-6.5932 2.6973-10.275 2.6973-3.5966 0-6.98-0.89897-10.148-2.6973-3.0828-1.8839-5.6086-4.6654-7.5781-8.3476s-2.9551-8.3502-2.9551-14.002 0.98551-10.32 2.9551-14.002c1.9696-3.7679 4.5386-6.5494 7.707-8.3477 3.2541-1.7983 6.6788-2.6973 10.275-2.6973zm40.719-33.012v89.914h10.789v-89.914zm22.992 0v89.914h10.791v-89.914zm118.64 24.662c-4.8811 0-9.3346 0.85569-13.359 2.5684-3.9391 1.627-7.1927 4.0249-9.7617 7.1934-2.4834 3.1684-3.9823 7.0652-4.4961 11.689h11.047c0.68507-4.4529 2.5695-7.7498 5.6523-9.8906s6.7219-3.2109 10.918-3.2109c3.3397 0 6.2077 0.68456 8.6055 2.0547 2.3977 1.2845 4.2389 3.2968 5.5234 6.0371s1.9277 6.2083 1.9277 10.404h-17.213c-5.6518 0-10.575 0.81242-14.771 2.4394-4.1104 1.5414-7.3227 3.8114-9.6348 6.8086-2.2265 2.9972-3.3398 6.6796-3.3398 11.047 0 3.511 0.81437 6.7646 2.4414 9.7617 1.7127 2.9972 4.2817 5.3951 7.707 7.1934 3.4253 1.7983 7.6644 2.6973 12.717 2.6973 2.3977 0 4.6658-0.29901 6.8066-0.89844 2.2265-0.5138 4.2821-1.2849 6.166-2.3125s3.5973-2.3121 5.1387-3.8535c1.627-1.5414 3.0394-3.3393 4.2383-5.3945h0.51367l1.0274 10.918h8.9922v-39.178c0-5.2236-0.9855-9.7617-2.9551-13.615-1.8839-3.9391-4.8385-6.9783-8.8633-9.1191-3.9391-2.2265-8.9474-3.3398-15.027-3.3398zm-0.25781 35.195h16.314c0 2.8259-0.47209 5.6093-1.4141 8.3496-0.85633 2.6546-2.1408 5.0506-3.8535 7.1914s-3.8096 3.8542-6.293 5.1387c-2.4834 1.1989-5.3534 1.7988-8.6074 1.7988-2.8259 0-5.2651-0.42883-7.3203-1.2852-1.9696-0.94197-3.5118-2.2265-4.625-3.8535-1.0276-1.7127-1.541-3.6817-1.541-5.9082 1e-5 -2.2265 0.5567-4.1955 1.6699-5.9082s2.9544-3.0404 5.5234-3.9824c2.569-1.0276 5.9505-1.541 10.146-1.541zm-66.52-76.807c-5.3949 0-9.9763 1.0288-13.744 3.084s-6.6379 4.7954-8.6074 8.2207c-1.9696 3.3397-2.9531 7.1067-2.9531 11.303s0.98357 8.0063 2.9531 11.432c1.1903 2.07 2.7154 3.8874 4.5625 5.457l-10.855 10.857v2.9531c1.1989 1.1132 2.5247 2.1853 3.9805 3.2129 1.2438 0.82918 2.7223 1.5988 4.4121 2.3164-1.4101 0.90925-2.6266 1.8485-3.6406 2.8203-1.9696 1.8839-3.382 3.8117-4.2383 5.7812-0.7707 1.9696-1.1562 3.8954-1.1562 5.7793 0 4.1104 1.2412 7.5784 3.7246 10.404 2.4834 2.9115 5.9514 5.095 10.404 6.5508 1.2058 0.4174 2.4637 0.77376 3.7637 1.0781 2.291-1.9688 5.5317-2.012 7.9941-0.52734-1.1765-1.9586-1.4671-4.4472-0.35547-6.6133 0.0246-0.0438 0.0507-0.0868 0.0781-0.1289-2.4815-0.18859-4.6991-0.55301-6.5996-1.1289-2.8259-0.85633-4.9661-2.1408-6.4219-3.8535-1.3701-1.627-2.0547-3.5548-2.0547-5.7812 0-2.4834 0.68456-4.7514 2.0547-6.8066 1.1359-1.7038 3.3179-3.3494 6.5137-4.9356 3.3435 0.56242 7.4091 1.0104 12.24 1.3379 6.08 0.34253 10.189 1.2848 12.33 2.8262 2.2265 1.627 3.3398 3.8105 3.3398 6.5508 0 2.2407-0.56738 4.238-1.6934 5.9961 1.0404 1.042 2.0024 2.0735 2.9609 2.9902 1.4328 1.0474 2.4669 2.5649 2.9121 4.2441 1.3612-1.2134 2.5022-2.5376 3.4004-3.9824 2.0552-3.1684 3.082-6.3787 3.082-9.6328 0-3.5966-0.81438-6.6377-2.4414-9.1211-1.5414-2.4834-4.0672-4.4092-7.5781-5.7793-3.511-1.4558-8.1356-2.398-13.873-2.8262-4.2817-0.34253-7.791-0.72808-10.531-1.1562-2.6546-0.42817-4.7968-0.85698-6.4238-1.2852-1.627-0.5138-2.9116-1.0272-3.8535-1.541-0.24669-0.14802-0.46353-0.29534-0.70312-0.44336l5.2402-6.4961c3.3644 1.3659 7.2846 2.0586 11.777 2.0586 5.3949 0 9.9763-0.98355 13.744-2.9531 3.7679-2.0552 6.6359-4.7973 8.6055-8.2227s2.9551-7.2356 2.9551-11.432-0.9855-7.963-2.9551-11.303c-0.56408-0.981-1.2123-1.899-1.9238-2.7676l13.1-1.0859v-5.9082h-23.34c-2.994-1.0208-6.3833-1.543-10.186-1.543zm0 8.2207c4.5386 0 8.1344 1.1999 10.789 3.5977 2.7403 2.3977 4.1113 5.9936 4.1113 10.789 0 4.7098-1.3711 8.3076-4.1113 10.791-2.6546 2.3977-6.2505 3.5957-10.789 3.5957s-8.1796-1.198-10.92-3.5957c-2.7403-2.4834-4.1094-6.0812-4.1094-10.791 0-4.7955 1.3691-8.3913 4.1094-10.789 2.7403-2.3977 6.3814-3.5977 10.92-3.5977zm134.52 33.391c-6.2512 0-11.775 1.4124-16.57 4.2383-4.7098 2.7403-8.3922 6.5938-11.047 11.561s-3.9805 10.833-3.9805 17.598c0 6.6794 1.3258 12.545 3.9805 17.598 2.7403 4.9667 6.466 8.8636 11.176 11.689 4.7098 2.7403 10.106 4.1094 16.186 4.1094 5.0524 0 9.4626-0.89897 13.23-2.6973 3.8535-1.7983 7.0638-4.2375 9.6328-7.3203s4.4102-6.5941 5.5234-10.533h-10.662c-1.3701 3.5966-3.5536 6.4214-6.5508 8.4766s-6.7209 3.084-11.174 3.084c-3.511 0-6.8944-0.85764-10.148-2.5703-3.1684-1.7983-5.7375-4.4519-7.707-7.9629-1.7424-3.106-2.7111-6.9183-2.9121-11.432h50.824c0.0857-1.1989 0.1289-2.2709 0.1289-3.2129v-2.8242c0-5.3093-1.1999-10.192-3.5976-14.645-2.3977-4.5386-5.8225-8.1777-10.275-10.918-4.4529-2.8259-9.8054-4.2383-16.057-4.2383zm-0.25586 8.3496c5.4805 0 10.019 1.6681 13.615 5.0078 3.6822 3.3397 5.6513 8.0509 5.9082 14.131h-40.203c0.30829-3.6626 1.1997-6.7937 2.6953-9.377 1.9696-3.2541 4.5386-5.6952 7.707-7.3223s6.5951-2.4394 10.277-2.4394z" fill="currentColor" stop-color="#000000" stroke-linecap="round" stroke-linejoin="round"/>
  </g>
</svg>
